<?xml version="1.0" standalone="no"?>
<!DOCTYPE svg PUBLIC "-//W3C//DTD SVG 20010904//EN"
 "http://www.w3.org/TR/2001/REC-SVG-20010904/DTD/svg10.dtd">
<svg version="1.0" xmlns="http://www.w3.org/2000/svg"
 width="184.000000pt" height="184.000000pt" viewBox="0 0 184.000000 184.000000"
 preserveAspectRatio="xMidYMid meet">
<metadata>
Created by potrace 1.11, written by Peter Selinger 2001-2013
</metadata>
<g transform="translate(0.000000,184.000000) scale(0.100000,-0.100000)"
fill="#000000" stroke="none">
<path d="M329 1709 c-30 -46 -113 -176 -185 -289 l-132 -205 185 -3 184 -2 -1
-267 -1 -267 194 -195 c107 -108 219 -223 248 -256 30 -33 77 -84 105 -114
l52 -55 0 324 0 324 25 21 c24 20 332 290 353 310 6 5 39 35 74 65 34 30 72
64 84 75 12 11 70 63 130 115 61 52 128 112 150 133 l41 38 -40 -5 c-22 -3
-69 -8 -105 -11 -36 -3 -83 -8 -105 -10 -40 -5 -63 -8 -180 -20 -33 -3 -73 -8
-90 -10 -16 -2 -57 -7 -90 -10 -123 -12 -122 -12 -191 -77 -36 -35 -70 -65
-75 -66 -5 -2 -42 27 -81 65 -39 37 -87 84 -108 103 -105 99 -234 222 -306
293 l-82 79 -53 -83z"/>
</g>
</svg>
